<svg width="54" height="43" viewBox="0 0 54 43" fill="none" xmlns="http://www.w3.org/2000/svg">
<rect x="35.6211" width="11.1789" height="42.2526" fill="#3DDAB4"/>
<rect x="46.8" y="30.8842" width="7.2" height="11.3684" fill="#3DDAB4"/>
<path d="M21.1555 42.0632C17.2985 42.0632 13.753 41.1751 10.5193 39.399C7.28561 37.5843 4.71422 35.0939 2.80515 31.9278C0.935052 28.723 0 25.1129 0 21.0974C0 17.0818 0.935052 13.491 2.80515 10.3249C4.71422 7.12017 7.28561 4.62975 10.5193 2.85365C13.753 1.07754 17.2985 0.189484 21.1555 0.189484C25.0516 0.189484 28.597 1.07754 31.7917 2.85365C35.0255 4.62975 37.5774 7.12017 39.4475 10.3249C41.3176 13.491 42.2526 17.0818 42.2526 21.0974C42.2526 25.1129 41.3176 28.723 39.4475 31.9278C37.5774 35.0939 35.0255 37.5843 31.7917 39.399C28.558 41.1751 25.0126 42.0632 21.1555 42.0632ZM21.1555 31.5224C24.0776 31.5224 26.3762 30.5764 28.0515 28.6844C29.7658 26.7925 30.6229 24.2635 30.6229 21.0974C30.6229 17.854 29.7658 15.3057 28.0515 13.4524C26.3762 11.5604 24.0776 10.6145 21.1555 10.6145C18.1945 10.6145 15.8764 11.5604 14.2011 13.4524C12.5258 15.3057 11.6881 17.854 11.6881 21.0974C11.6881 24.3021 12.5258 26.8504 14.2011 28.7424C15.8764 30.5957 18.1945 31.5224 21.1555 31.5224Z" fill="#3DDAB4"/>
</svg>
